
<svg width="21px" height="18px" viewBox="0 0 21 18" version="1.1" xmlns="http://www.w3.org/2000/svg" xmlns:xlink="http://www.w3.org/1999/xlink">
    <!-- Generator: Sketch 51.3 (57544) - http://www.bohemiancoding.com/sketch -->
    <desc>Created with Sketch.</desc>
    <defs></defs>
    <g id="Welcome" stroke="none" stroke-width="1" fill="none" fill-rule="evenodd">
        <g id="맥주-목록-페이지-1" transform="translate(-242.000000, -17.000000)" fill="#3369E8" fill-rule="nonzero">
            <g id="Header">
                <path d="M244.186441,21.3728814 C245.393754,21.3728814 246.372881,20.3905374 246.372881,19.1885131 C246.372881,17.9864889 245.393754,17 244.186441,17 C242.979127,17 242,17.982344 242,19.1843682 C242,20.3863925 242.983276,21.3728814 244.186441,21.3728814 Z M244.186441,18.0155033 C244.83366,18.0155033 245.356415,18.541907 245.356415,19.1843682 C245.356415,19.8268295 244.829511,20.3532332 244.186441,20.3532332 C243.54337,20.3532332 243.016467,19.8268295 243.016467,19.1843682 C243.016467,18.541907 243.54337,18.0155033 244.186441,18.0155033 Z" id="Shape"></path>
                <path d="M244.186441,28.1864407 C245.393754,28.1864407 246.372881,27.2031647 246.372881,26 C246.372881,24.7968353 245.393754,23.8135593 244.186441,23.8135593 C242.979127,23.8135593 242,24.7926865 242,26 C242,27.2073135 242.983276,28.1864407 244.186441,28.1864407 Z M244.186441,24.8300261 C244.83366,24.8300261 245.356415,25.3569292 245.356415,26 C245.356415,26.6430708 244.829511,27.1699739 244.186441,27.1699739 C243.54337,27.1699739 243.016467,26.6472196 243.016467,26 C243.016467,25.3527804 243.54337,24.8300261 244.186441,24.8300261 Z" id="Shape"></path>
                <path d="M244.186441,35 C245.393754,35 246.372881,34.016724 246.372881,32.8135593 C246.372881,31.6062458 245.389605,30.6271186 244.186441,30.6271186 C242.983276,30.6271186 242,31.6103946 242,32.8135593 C242,34.016724 242.983276,35 244.186441,35 Z M244.186441,31.6394365 C244.83366,31.6394365 245.356415,32.1663397 245.356415,32.8094105 C245.356415,33.4566301 244.829511,33.9793844 244.186441,33.9793844 C243.54337,33.9793844 243.016467,33.4524813 243.016467,32.8094105 C243.016467,32.1663397 243.54337,31.6394365 244.186441,31.6394365 Z" id="Shape"></path>
                <path d="M249.327554,19.7457627 L261.926684,19.7457627 C262.210843,19.7457627 262.440678,19.518396 262.440678,19.2372881 C262.440678,18.9561802 262.210843,18.7288136 261.926684,18.7288136 L249.327554,18.7288136 C249.043394,18.7288136 248.813559,18.9561802 248.813559,19.2372881 C248.813559,19.518396 249.043394,19.7457627 249.327554,19.7457627 Z" id="Shape"></path>
                <path d="M249.327554,26.559322 L261.926684,26.559322 C262.210843,26.559322 262.440678,26.3319554 262.440678,26.0508475 C262.440678,25.7697396 262.210843,25.5423729 261.926684,25.5423729 L249.327554,25.5423729 C249.043394,25.5423729 248.813559,25.7697396 248.813559,26.0508475 C248.813559,26.3319554 249.043394,26.559322 249.327554,26.559322 Z" id="Shape"></path>
                <path d="M249.327554,33.3728814 L261.926684,33.3728814 C262.210843,33.3728814 262.440678,33.1455147 262.440678,32.8644068 C262.440678,32.5832989 262.210843,32.3559322 261.926684,32.3559322 L249.327554,32.3559322 C249.043394,32.3559322 248.813559,32.5832989 248.813559,32.8644068 C248.813559,33.1455147 249.043394,33.3728814 249.327554,33.3728814 Z" id="Shape"></path>
            </g>
        </g>
    </g>
</svg>